# xmcd
#
# Track frame offsets: 
#        150
#        12868
#        24278
#        34885
#        44945
#        56002
#        68989
#        81148
#        93088
#        104474
#        117254
#        127647
#        139032
#        149641
#        162144
#        174182
#        186127
#        197130
#        209642
#        227615
#        237107
#        249590
#        259743
#        272364
#        282880
#
# Disc length: 3898 seconds
#
# Revision: 2
# Processed by: cddbd v1.5.2PL0 Copyright (c) Steve Scherf et al.
# Submitted via: ExactAudioCopyFreeDBPlugin 1.0
#
DISCID=5e0f3819
DTITLE=Various Artist - The Best of Doo Wop [Real Gone Music]
DYEAR=2017
DGENRE=Rhythm and Blues
TTITLE0=The Kodaks - Oh Gee Oh Gosh
TTITLE1=The Elchords - Peppermint Stick
TTITLE2=The Olympics - Western Movies
TTITLE3=The Danleers - One Summer Night
TTITLE4=The Avalons - Heart's Desire
TTITLE5=The Flamingos - Lovers Never Say Goodbye
TTITLE6=The Elegants - Little Star
TTITLE7=The Pastels - So Far Away
TTITLE8=Danny and The Juniors - Rock 'n' Roll is Here to Stay
TTITLE9=The Crests - 16 Candles
TTITLE10=Little Anthony and The Imperials - Tears on My Pillow
TTITLE11=The Students - I'm So Young
TTITLE12=Dion and The Belmonts - I Wonder Why
TTITLE13=The Platters - Twilight Time
TTITLE14=The Skyliners - Since I Don't Have You
TTITLE15=The Platters - Smoke Gets in Your Eyes
TTITLE16=The Shields - You Cheated
TTITLE17=Jerry Butler and The Impressions - For Your Precious Love
TTITLE18=Harvey and The Moonglows - Ten Commandments of Love
TTITLE19=The Chantels - Every Night (I Pray)
TTITLE20=The Fidelity's - The Things I Love
TTITLE21=The Shirelles - I Met Him on a Sunday
TTITLE22=The Quin-Tones - Down the Aisle of Love
TTITLE23=The Fiestas - So Fine
TTITLE24=The Imperials - Shimmy, Shimmy, Ko-Ko-Bop
EXTD=
EXTT0=
EXTT1=
EXTT2=
EXTT3=
EXTT4=
EXTT5=
EXTT6=
EXTT7=
EXTT8=
EXTT9=
EXTT10=
EXTT11=
EXTT12=
EXTT13=
EXTT14=
EXTT15=
EXTT16=
EXTT17=
EXTT18=
EXTT19=
EXTT20=
EXTT21=
EXTT22=
EXTT23=
EXTT24=
PLAYORDER=
